<?xml version="1.0" encoding="UTF-8"?>
<svg version="1.1" xmlns="http://www.w3.org/2000/svg" width="225" height="225">
<path d="M0 0 C3.45898216 0.62709605 5.07169026 1.13112684 8.0625 3.125 C8.3555413 5.63535514 8.45872271 7.89527829 8.42578125 10.40625 C8.42652901 11.49842834 8.42652901 11.49842834 8.42729187 12.6126709 C8.42494795 14.15945145 8.41520067 15.70623557 8.39868164 17.25292969 C8.37536689 19.58825049 8.37808314 21.92240708 8.38476562 24.2578125 C8.36879911 32.04947352 8.11639189 39.55369847 6.0625 47.125 C4.4375 47.14583333 2.8125 47.16666667 1.1875 47.1875 C0.28257812 47.19910156 -0.62234375 47.21070313 -1.5546875 47.22265625 C-3.22917969 47.17431641 -3.22917969 47.17431641 -4.9375 47.125 C-5.72552002 47.17333984 -6.51354004 47.22167969 -7.32543945 47.27148438 C-10.16812287 47.28647545 -12.2595493 47.10177575 -14.9375 46.125 C-17.85770038 42.965246 -19.55317833 39.37106205 -21.375 35.5 C-21.87708984 34.51386719 -22.37917969 33.52773437 -22.89648438 32.51171875 C-23.86193346 30.59616546 -24.80183417 28.6674688 -25.71264648 26.7253418 C-26.45443415 25.15054003 -27.23140826 23.59082285 -28.07055664 22.06567383 C-29 20.29296875 -29 20.29296875 -29.9375 17.125 C-28.1051684 12.57001893 -24.98249096 8.95374516 -21.9375 5.125 C-21.43347656 4.43019531 -20.92945312 3.73539063 -20.41015625 3.01953125 C-15.07734405 -3.48804538 -7.3431225 -1.18500125 0 0 Z " fill="#034485" transform="translate(143.9375,41.875)"/>
<path d="M0 0 C1.25159912 0.00523682 2.50319824 0.01047363 3.79272461 0.01586914 C4.78942421 0.01799156 4.78942421 0.01799156 5.80625916 0.02015686 C7.93590735 0.02577021 10.06545175 0.03832485 12.19506836 0.05102539 C13.63582205 0.05603868 15.07657739 0.06060188 16.51733398 0.06469727 C20.05577938 0.07574394 23.59416375 0.09301747 27.13256836 0.11352539 C28.83989882 3.18627385 30.51982484 6.27318327 32.19506836 9.36352539 C32.68040039 10.2362207 33.16573242 11.10891602 33.66577148 12.00805664 C34.12016602 12.85239258 34.57456055 13.69672852 35.04272461 14.56665039 C35.46690674 15.34169922 35.89108887 16.11674805 36.328125 16.9152832 C37.26798642 19.4835722 37.10565697 20.59480368 36.13256836 23.11352539 C32.51183571 28.22734367 27.12601382 31.63228169 21.94506836 34.98852539 C21.33896729 35.38193115 20.73286621 35.77533691 20.10839844 36.18066406 C13.9266254 40.06890971 13.9266254 40.06890971 11.13256836 40.11352539 C1.79310954 35.7854835 -8.13997513 28.70471016 -13.86743164 20.11352539 C-12.22459179 16.9661199 -10.57766116 13.82087342 -8.92993164 10.67602539 C-8.46135742 9.77819336 -7.9927832 8.88036133 -7.51000977 7.95532227 C-7.06206055 7.10131836 -6.61411133 6.24731445 -6.15258789 5.36743164 C-5.73887939 4.57667236 -5.3251709 3.78591309 -4.89892578 2.97119141 C-3.32216481 0.13152888 -3.32216481 0.13152888 0 0 Z " fill="#024487" transform="translate(100.867431640625,89.886474609375)"/>
<path d="M0 0 C3.65012126 -0.25077169 5.75675888 0.13805726 8.921875 1.984375 C13.36989765 6.27221955 17.21086045 11.70948898 19.921875 17.234375 C19.51218699 21.16615088 18.09220088 24.20698092 16.26953125 27.68359375 C15.47579102 29.20243164 15.47579102 29.20243164 14.66601562 30.75195312 C14.11107422 31.79802734 13.55613281 32.84410156 12.984375 33.921875 C12.43330078 34.97955078 11.88222656 36.03722656 11.31445312 37.12695312 C7.19408061 44.96216939 7.19408061 44.96216939 4.921875 47.234375 C-1.64131102 48.42360187 -8.42965595 48.3433663 -15.078125 48.234375 C-15.87634316 45.42243699 -16.20066132 42.93614215 -16.19165039 40.01660156 C-16.19157486 39.19605286 -16.19149933 38.37550415 -16.19142151 37.53009033 C-16.18626022 36.65391052 -16.18109894 35.77773071 -16.17578125 34.875 C-16.1743663 33.97062195 -16.17295135 33.0662439 -16.17149353 32.13446045 C-16.16590411 29.25106473 -16.15335353 26.36774718 -16.140625 23.484375 C-16.13560863 21.52734487 -16.13104596 19.57031353 -16.12695312 17.61328125 C-16.11593813 12.82028247 -16.09868074 8.02734198 -16.078125 3.234375 C-10.69630268 1.35912247 -5.61186834 0.63291748 0 0 Z " fill="#034484" transform="translate(91.078125,40.765625)"/>
<path d="M0 0 C0.66 0 1.32 0 2 0 C2 2.31 2 4.62 2 7 C3.32 7 4.64 7 6 7 C5.67 8.32 5.34 9.64 5 11 C5.66 11 6.32 11 7 11 C8.0257259 15.41062136 8.03684712 17.92630576 6 22 C6.66 22 7.32 22 8 22 C8.33 20.68 8.66 19.36 9 18 C9.66 18 10.32 18 11 18 C11.268125 18.969375 11.53625 19.93875 11.8125 20.9375 C12.204375 21.948125 12.59625 22.95875 13 24 C13.99 24.33 14.98 24.66 16 25 C17.92635781 27.26137656 19.39204863 29.64498323 20.9375 32.1875 C23.18003227 35.24549854 23.54512825 35.33131514 27 36 C28 37.33333333 29 38.66666667 30 40 C30.639375 40.144375 31.27875 40.28875 31.9375 40.4375 C35.09289858 41.29806325 36.20748765 43.37524977 38 46 C38 46.66 38 47.32 38 48 C40.31 48 42.62 48 45 48 C45.0825 47.4225 45.165 46.845 45.25 46.25 C46.20531013 43.3840696 47.78469173 42.0009236 50 40 C50.99 40.33 51.98 40.66 53 41 C53.598125 40.030625 54.19625 39.06125 54.8125 38.0625 C57 35 57 35 60 34 C61.01187895 32.34051852 62.0126546 30.67419438 63 29 C63.66 29 64.32 29 65 29 C65.495 28.175 65.99 27.35 66.5 26.5 C66.995 25.675 67.49 24.85 68 24 C68.66 24 69.32 24 70 24 C70.66 22.02 71.32 20.04 72 18 C72.66 18 73.32 18 74 18 C74.99 18.99 74.99 18.99 76 20 C75.690625 18.3603125 75.690625 18.3603125 75.375 16.6875 C75 13 75 13 77 10 C77.63292383 7.88719655 77.63292383 7.88719655 78 6 C78.99 6 79.98 6 81 6 C80.7215625 5.071875 80.7215625 5.071875 80.4375 4.125 C80 2 80 2 81 0 C81.66 0 82.32 0 83 0 C83.495 3.465 83.495 3.465 84 7 C85.32 7.33 86.64 7.66 88 8 C85.53846154 12.8 85.53846154 12.8 82.8125 13.8125 C82.214375 13.874375 81.61625 13.93625 81 14 C81 14.66 81 15.32 81 16 C82.32 15.67 83.64 15.34 85 15 C85 18 85 18 83.75 19.625 C81.82584484 21.1368362 80.39010582 21.58791279 78 22 C78.99 22.99 79.98 23.98 81 25 C79 28 79 28 76 29 C76 30.32 76 31.64 76 33 C74 35 74 35 70.875 35.125 C69.92625 35.08375 68.9775 35.0425 68 35 C68.99 35.99 69.98 36.98 71 38 C70 39.5 70 39.5 68 41 C65.28153765 41.27345479 62.74322801 41.13491285 60 41 C61.32 42.32 62.64 43.64 64 45 C59.8204355 47.78637633 57.85331323 46.79562512 53 46 C53.66 47.65 54.32 49.3 55 51 C54.67 51.33 54.34 51.66 54 52 C51.66117862 51.70764733 49.32716 51.37400786 47 51 C46.67 51 46.34 51 46 51 C45.505 51.99 45.505 51.99 45 53 C42.36 53 39.72 53 37 53 C37.33 51.68 37.66 50.36 38 49 C37.1646875 49.7425 37.1646875 49.7425 36.3125 50.5 C33.5786377 52.27331609 32.19834873 52.50500243 29 52 C28.34 51.01 27.68 50.02 27 49 C27.99 48.01 28.98 47.02 30 46 C28.741875 46.226875 27.48375 46.45375 26.1875 46.6875 C22.27768014 47.1995826 22.27768014 47.1995826 20 45.5625 C19.67 45.046875 19.34 44.53125 19 44 C19.66 43.01 20.32 42.02 21 41 C18.69 41 16.38 41 14 41 C13.34 39.68 12.68 38.36 12 37 C12.66 36.34 13.32 35.68 14 35 C10.535 34.505 10.535 34.505 7 34 C6.9175 33.236875 6.835 32.47375 6.75 31.6875 C5.85384206 28.47626739 4.78388975 27.70625501 2 26 C2.33 25.01 2.66 24.02 3 23 C3.66 23 4.32 23 5 23 C5 22.34 5 21.68 5 21 C4.05125 20.9175 3.1025 20.835 2.125 20.75 C-1 20 -1 20 -2.375 17.9375 C-2.58125 17.298125 -2.7875 16.65875 -3 16 C-1.68 15.67 -0.36 15.34 1 15 C0.38125 14.773125 -0.2375 14.54625 -0.875 14.3125 C-3.61410209 12.62070165 -4.05024472 11.00755839 -5 8 C-4.34 7.67 -3.68 7.34 -3 7 C-2.34 7.33 -1.68 7.66 -1 8 C-1.20625 7.236875 -1.4125 6.47375 -1.625 5.6875 C-2 3 -2 3 0 0 Z M79 13 C80 15 80 15 80 15 Z M70 24 C70 25.65 70 27.3 70 29 C70.66 28.67 71.32 28.34 72 28 C71.34 26.68 70.68 25.36 70 24 Z M11 26 C12 28 12 28 12 28 Z M65 31 C64.67 32.32 64.34 33.64 64 35 C64.66 34.67 65.32 34.34 66 34 C65.67 33.01 65.34 32.02 65 31 Z M23 36 C23 39 23 39 23 39 Z M30 42 C31 44 31 44 31 44 Z " fill="#0F3A71" transform="translate(71,89)"/>
<path d="M0 0 C0.495 0.33 0.99 0.66 1.5 1 C1.5 2.32 1.5 3.64 1.5 5 C1.005 4.835 0.51 4.67 0 4.5 C-3.59809533 3.78038093 -6.82539233 3.8221964 -10.5 4 C-13.14751415 6.64751415 -13.21520084 8.29761096 -13.5 12 C-12.80059064 15.26814404 -12.80059064 15.26814404 -11.5 18 C-8.69084526 19.40457737 -6.61189466 19.24895157 -3.5 19 C-1.07695632 18.0785608 -1.07695632 18.0785608 0.5 16 C0.83926947 13.66752239 1.17240066 11.33414529 1.5 9 C3.18682231 6.3685572 4.34112855 5.27365548 7.40234375 4.55078125 C9.6345419 4.36372554 11.33471615 4.41874553 13.5 5 C16.56381693 8.14041235 17.39227179 10.23243652 18 14.5625 C17.40601391 18.64615436 16.56712846 20.25572717 13.5 23 C10.5625 24 10.5625 24 7.5 24 C4.625 22.5625 4.625 22.5625 2.5 21 C1.51 21.66 0.52 22.32 -0.5 23 C-5.1031728 23.68195153 -10.44344395 24.4556693 -14.3984375 21.65625 C-15.75 20 -15.75 20 -17.5 17 C-17.83 18.98 -18.16 20.96 -18.5 23 C-19.82 23 -21.14 23 -22.5 23 C-22.83 18.71 -23.16 14.42 -23.5 10 C-26.5 8.66666667 -26.5 8.66666667 -29.5 10 C-29.83 14.29 -30.16 18.58 -30.5 23 C-31.82 22.67 -33.14 22.34 -34.5 22 C-34.5 16.72 -34.5 11.44 -34.5 6 C-31.3897946 5.22244865 -29.07322083 4.81366946 -25.9375 4.75 C-25.17308594 4.72421875 -24.40867187 4.6984375 -23.62109375 4.671875 C-21.00276756 5.07691994 -20.15481299 5.99096187 -18.5 8 C-17.63375 6.329375 -17.63375 6.329375 -16.75 4.625 C-15.52134625 2.51325137 -14.64713693 1.12086248 -12.75 -0.4375 C-8.41410314 -1.52147422 -4.17453354 -1.66981341 0 0 Z M5.75 9.125 C3.94224002 11.83663997 4.16779919 13.81087222 4.5 17 C5.49 18.485 5.49 18.485 6.5 20 C9 20.41666667 9 20.41666667 11.5 20 C13.65705515 18.2435669 13.65705515 18.2435669 13.765625 16.125 C13.76046875 15.42375 13.7553125 14.7225 13.75 14 C13.75515625 13.29875 13.7603125 12.5975 13.765625 11.875 C13.65705515 9.7564331 13.65705515 9.7564331 11.5 8 C7.71404988 7.63949494 7.71404988 7.63949494 5.75 9.125 Z " fill="#0F376F" transform="translate(119.5,157)"/>
<path d="M0 0 C2.5 1.5 2.5 1.5 4 3 C4.54140625 2.50886719 5.0828125 2.01773438 5.640625 1.51171875 C8.57241283 -0.3667612 10.30299691 -0.31060725 13.75 -0.1875 C14.73484375 -0.16042969 15.7196875 -0.13335937 16.734375 -0.10546875 C17.48203125 -0.07066406 18.2296875 -0.03585938 19 0 C19.0582253 3.08325358 19.09367134 6.16636505 19.125 9.25 C19.14175781 10.12269531 19.15851563 10.99539062 19.17578125 11.89453125 C19.18544922 13.16103516 19.18544922 13.16103516 19.1953125 14.453125 C19.21102295 15.61569824 19.21102295 15.61569824 19.22705078 16.80175781 C18.9698716 19.29169472 18.29168446 20.86822851 17 23 C14.94945369 24.65621048 13.58623081 25.03032228 10.9609375 24.89453125 C8.96647562 24.65139014 6.98188995 24.33031499 5 24 C5 22.68 5 21.36 5 20 C8.3 20 11.6 20 15 20 C15 19.01 15 18.02 15 17 C13.9275 17.226875 12.855 17.45375 11.75 17.6875 C8 18 8 18 5.5625 16.5625 C5.046875 16.046875 4.53125 15.53125 4 15 C3.01 16.485 3.01 16.485 2 18 C-0.2421875 18.3984375 -0.2421875 18.3984375 -2.875 18.375 C-3.73867187 18.38273437 -4.60234375 18.39046875 -5.4921875 18.3984375 C-8.49238037 17.92177134 -9.84582489 17.12513005 -12 15 C-13.15963373 10.28415616 -13.42370766 8.10971054 -11.6875 3.5625 C-8.76804179 -0.87075135 -4.96515838 -0.58875396 0 0 Z M-7 3 C-7.66 4.32 -8.32 5.64 -9 7 C-6.03 7 -3.06 7 0 7 C-0.66 5.68 -1.32 4.36 -2 3 C-3.65 3 -5.3 3 -7 3 Z M8.1875 4.0625 C6.51479174 6.79165558 6.73269983 8.85922296 7 12 C7.33 12.66 7.66 13.32 8 14 C9.99954746 14.04254356 12.00041636 14.04080783 14 14 C15.23267348 12.99163938 15.23267348 12.99163938 15.09765625 10.93359375 C15.08605469 10.10988281 15.07445312 9.28617188 15.0625 8.4375 C15.05347656 7.61121094 15.04445312 6.78492188 15.03515625 5.93359375 C15.02355469 5.29550781 15.01195312 4.65742188 15 4 C11.49284262 2.87567281 11.49284262 2.87567281 8.1875 4.0625 Z M-9 10 C-8.67 11.32 -8.34 12.64 -8 14 C-5.22899606 15.38550197 -3.0665294 15.1877467 0 15 C0.99 14.34 1.98 13.68 3 13 C3 12.01 3 11.02 3 10 C-0.96 10 -4.92 10 -9 10 Z " fill="#0B346E" transform="translate(161,162)"/>
<path d="M0 0 C2.3046875 -0.05859375 2.3046875 -0.05859375 5 1 C6.45396516 3.83387842 7.22335206 6.89075309 8.125 9.9375 C10.08929311 16.3658273 10.08929311 16.3658273 14.89453125 20.63671875 C17.70284169 21.08734623 20.17138845 21.2557515 23 21 C22.67 20.01 22.34 19.02 22 18 C20.15640378 17.16524481 20.15640378 17.16524481 18 16.625 C15.82421875 15.87890625 15.82421875 15.87890625 14 15 C12.8125 12.5625 12.8125 12.5625 13 10 C13.875 7.6875 13.875 7.6875 16 6 C19.76953533 5.50382716 23.55295376 5.27647688 27 7 C27 8.32 27 9.64 27 11 C24.03 10.67 21.06 10.34 18 10 C18 10.66 18 11.32 18 12 C18.56589844 12.20496094 19.13179687 12.40992188 19.71484375 12.62109375 C20.44832031 12.89050781 21.18179688 13.15992188 21.9375 13.4375 C22.66839844 13.70433594 23.39929688 13.97117188 24.15234375 14.24609375 C26 15 26 15 27 16 C26.71269945 18.33944736 26.38063221 20.6739143 26 23 C20.02197063 25.20927172 15.26039609 24.93213141 9 24 C8.34 22.02 7.68 20.04 7 18 C3.7 18 0.4 18 -3 18 C-3.33 19.98 -3.66 21.96 -4 24 C-5.32 24 -6.64 24 -8 24 C-7.3661521 18.482845 -5.49435691 13.73252191 -3.4375 8.625 C-2.9434668 7.37783203 -2.9434668 7.37783203 -2.43945312 6.10546875 C-1.63155238 4.06815382 -0.8182989 2.03315558 0 0 Z M2 6 C-0.01486569 9.87520127 -0.01486569 9.87520127 -1 14 C0.98 14 2.96 14 5 14 C4.55296014 9.52116304 4.55296014 9.52116304 2 6 Z " fill="#BE1A1D" transform="translate(36,156)"/>
<path d="M0 0 C0.66 0 1.32 0 2 0 C3.81955658 3.41295358 5.62939972 6.83096527 7.4375 10.25 C7.95376953 11.21808594 8.47003906 12.18617187 9.00195312 13.18359375 C9.49501953 14.11816406 9.98808594 15.05273438 10.49609375 16.015625 C10.95169678 16.87446289 11.4072998 17.73330078 11.87670898 18.61816406 C13 21 13 21 14 25 C5.42 25 -3.16 25 -12 25 C-11.16478884 20.82394419 -10.49205983 18.69275028 -8.49609375 15.13671875 C-7.75649414 13.80737305 -7.75649414 13.80737305 -7.00195312 12.45117188 C-6.48568359 11.53916016 -5.96941406 10.62714844 -5.4375 9.6875 C-4.91736328 8.75615234 -4.39722656 7.82480469 -3.86132812 6.86523438 C-2.58023026 4.57336205 -1.29297895 2.28518387 0 0 Z " fill="#DD0F17" transform="translate(112,63)"/>
<path d="M0 0 C0.66 0.66 1.32 1.32 2 2 C1.4494326 7.12131565 -2.22471279 9.88417802 -6 13 C-8.35088775 14.69653862 -10.75453311 16.29891126 -13.1875 17.875 C-13.79360107 18.26840576 -14.39970215 18.66181152 -15.02416992 19.06713867 C-21.25101473 22.98373381 -21.25101473 22.98373381 -24 23 C-26.32856411 21.8621789 -28.34831695 20.72012032 -30.5 19.3125 C-31.06847656 18.95994141 -31.63695313 18.60738281 -32.22265625 18.24414062 C-35.54199381 16.13778605 -38.33828369 13.89004982 -41 11 C-39.9171875 11.495 -39.9171875 11.495 -38.8125 12 C-35.98302573 13.00603529 -33.97104534 13.16977402 -31 13 C-31 11.35 -31 9.7 -31 8 C-30.67 8.99 -30.34 9.98 -30 11 C-29.34 11 -28.68 11 -28 11 C-28 10.34 -28 9.68 -28 9 C-26.01432292 9.29296875 -24.02864583 9.5859375 -22.04296875 9.87890625 C-19.7974658 10.13904799 -19.7974658 10.13904799 -17 9 C-17.33 10.32 -17.66 11.64 -18 13 C-16.35 13.66 -14.7 14.32 -13 15 C-11.37380152 13.70984254 -9.74908017 12.41782303 -8.125 11.125 C-6.76761719 10.04605469 -6.76761719 10.04605469 -5.3828125 8.9453125 C-1.77628528 6.00096733 -0.72326966 4.58070782 0 0 Z " fill="#073B79" transform="translate(136,107)"/>
<path d="M0 0 C1.58179615 -0.10867302 3.16577153 -0.18589827 4.75 -0.25 C5.63171875 -0.29640625 6.5134375 -0.3428125 7.421875 -0.390625 C10 0 10 0 12.3125 1.5625 C14.62844328 4.9077514 14.39910904 7.22405587 14.25 11.25 C14.21390625 12.51328125 14.1778125 13.7765625 14.140625 15.078125 C14.07101563 16.52445313 14.07101563 16.52445313 14 18 C4.13840915 19.74434444 4.13840915 19.74434444 -0.25 16.875 C-2 14 -2 14 -2.125 11.375 C-0.61299003 8.18297895 0.76237345 7.36699788 4 6 C7.3125 5.8125 7.3125 5.8125 10 6 C10 5.34 10 4.68 10 4 C6.7 4 3.4 4 0 4 C0 2.68 0 1.36 0 0 Z M2 11 C2.33 12.32 2.66 13.64 3 15 C6.465 14.505 6.465 14.505 10 14 C10 12.35 10 10.7 10 9 C6.23312136 9 5.08809695 9.23537317 2 11 Z " fill="#C21516" transform="translate(70,162)"/>
<path d="M0 0 C2.4375 1.625 2.4375 1.625 4 4 C4 5.98 4 7.96 4 10 C0.04 10 -3.92 10 -8 10 C-7.34 11.32 -6.68 12.64 -6 14 C-2.4780279 14.08004482 0.61981469 14.04005702 4 13 C3.67 14.65 3.34 16.3 3 18 C-6.85626008 18.61176787 -6.85626008 18.61176787 -10.6875 16.5625 C-12.67173925 12.68850908 -12.86269262 9.25292326 -12 5 C-8.67935135 0.06933988 -5.83352544 -0.95457689 0 0 Z M-6 3 C-6.66 4.32 -7.32 5.64 -8 7 C-5.36 7 -2.72 7 0 7 C-0.33 5.68 -0.66 4.36 -1 3 C-2.65 3 -4.3 3 -6 3 Z " fill="#0D3369" transform="translate(193,162)"/>
<path d="M0 0 C7.26 0 14.52 0 22 0 C19.03 3.96 19.03 3.96 16 8 C14.32645763 10.32840678 12.65743106 12.66009733 11 15 C10.484375 14.34 9.96875 13.68 9.4375 13 C6.85656474 9.82346429 4.14492043 6.79578443 1.390625 3.76953125 C0 2 0 2 0 0 Z " fill="#71B9D4" transform="translate(102,41)"/>
<path d="M0 0 C13.5 -0.25 13.5 -0.25 18 2 C15.69 6.62 13.38 11.24 11 16 C10.01 16 9.02 16 8 16 C5.36 10.72 2.72 5.44 0 0 Z " fill="#5792B2" transform="translate(131,91)"/>
<path d="M0 0 C-0.59259328 4.37544904 -2.21156828 7.52240004 -4.4375 11.3125 C-5.05496094 12.38113281 -5.67242187 13.44976562 -6.30859375 14.55078125 C-6.86675781 15.35902344 -7.42492187 16.16726562 -8 17 C-8.66 17 -9.32 17 -10 17 C-11.19725883 14.71296692 -12.38297018 12.42115138 -13.5625 10.125 C-13.90474609 9.47402344 -14.24699219 8.82304688 -14.59960938 8.15234375 C-15.46082891 6.46470143 -16.23686703 4.73420407 -17 3 C-16.67 2.34 -16.34 1.68 -16 1 C-13.1640625 0.5859375 -13.1640625 0.5859375 -9.625 0.375 C-7.88089844 0.26285156 -7.88089844 0.26285156 -6.1015625 0.1484375 C-4.06943251 0.05118191 -2.03445594 0 0 0 Z " fill="#6DB5CF" transform="translate(94,90)"/>
<path d="M0 0 C1.60488281 -0.03867188 1.60488281 -0.03867188 3.2421875 -0.078125 C6.125 0.25 6.125 0.25 7.99609375 1.28515625 C9.76379329 4.36180978 9.43775423 7.49782623 9.3125 10.9375 C9.29219727 11.9903418 9.29219727 11.9903418 9.27148438 13.06445312 C9.23620182 14.79329829 9.18239583 16.52174765 9.125 18.25 C7.805 18.25 6.485 18.25 5.125 18.25 C4.795 13.96 4.465 9.67 4.125 5.25 C1.125 3.91666667 1.125 3.91666667 -1.875 5.25 C-2.205 9.54 -2.535 13.83 -2.875 18.25 C-4.195 17.92 -5.515 17.59 -6.875 17.25 C-6.90184679 14.60409986 -6.92176357 11.95846904 -6.9375 9.3125 C-6.94587891 8.55775391 -6.95425781 7.80300781 -6.96289062 7.02539062 C-6.97152441 5.10005687 -6.92724333 3.17464419 -6.875 1.25 C-5.07228218 -0.55271782 -2.43091251 0.03497716 0 0 Z " fill="#C0191C" transform="translate(91.875,161.75)"/>
<path d="M0 0 C2.35546875 0.2109375 2.35546875 0.2109375 5 1 C8.43273146 6.13434334 9.52697546 11.93978226 9 18 C8.31292969 17.9278125 7.62585937 17.855625 6.91796875 17.78125 C6.01691406 17.6884375 5.11585937 17.595625 4.1875 17.5 C2.84751953 17.36078125 2.84751953 17.36078125 1.48046875 17.21875 C-1.08305099 16.95607599 -1.08305099 16.95607599 -4 17 C-4.56131481 10.54487966 -2.63463787 5.84560277 0 0 Z M2 6 C-0.01486569 9.87520127 -0.01486569 9.87520127 -1 14 C0.98 14 2.96 14 5 14 C4.55296014 9.52116304 4.55296014 9.52116304 2 6 Z " fill="#D40F11" transform="translate(36,156)"/>
<path d="M0 0 C1.32 0.33 2.64 0.66 4 1 C4 8.92 4 16.84 4 25 C2.68 25 1.36 25 0 25 C0 16.75 0 8.5 0 0 Z " fill="#073E80" transform="translate(138,155)"/>
<path d="M0 0 C1.24112549 0.02618408 2.48225098 0.05236816 3.76098633 0.0793457 C4.42262283 0.08642044 5.08425934 0.09349518 5.76594543 0.1007843 C7.87612742 0.12874188 9.98364018 0.19146848 12.09301758 0.25512695 C13.52461983 0.28020872 14.95626375 0.30302212 16.38793945 0.32348633 C19.89466408 0.37856849 23.39983029 0.46484406 26.90551758 0.56762695 C26.57551758 1.22762695 26.24551758 1.88762695 25.90551758 2.56762695 C25.20467041 2.55715332 24.50382324 2.54667969 23.78173828 2.53588867 C20.59386813 2.49421027 17.40605543 2.4682631 14.21801758 2.44262695 C13.11522461 2.42586914 12.01243164 2.40911133 10.8762207 2.3918457 C9.27617188 2.38217773 9.27617188 2.38217773 7.64379883 2.37231445 C6.66451416 2.36184082 5.68522949 2.35136719 4.67626953 2.34057617 C1.70318206 2.58420745 -0.42840355 3.24752965 -3.09448242 4.56762695 C-4.30975227 6.24808852 -4.30975227 6.24808852 -4.90698242 8.19262695 C-5.29885742 9.30637695 -5.69073242 10.42012695 -6.09448242 11.56762695 C-6.75448242 11.56762695 -7.41448242 11.56762695 -8.09448242 11.56762695 C-8.09448242 13.21762695 -8.09448242 14.86762695 -8.09448242 16.56762695 C-8.75448242 16.56762695 -9.41448242 16.56762695 -10.09448242 16.56762695 C-11.04468658 18.80746196 -11.04468658 18.80746196 -11.09448242 21.56762695 C-8.76099042 24.4017385 -8.76099042 24.4017385 -6.09448242 26.56762695 C-6.42448242 27.22762695 -6.75448242 27.88762695 -7.09448242 28.56762695 C-9.40448242 26.25762695 -11.71448242 23.94762695 -14.09448242 21.56762695 C-12.82615554 19.00385931 -11.55491877 16.44160483 -10.28198242 13.88012695 C-9.92555664 13.15889648 -9.56913086 12.43766602 -9.2019043 11.69458008 C-8.85063477 10.98881836 -8.49936523 10.28305664 -8.13745117 9.5559082 C-7.81800537 8.91177979 -7.49855957 8.26765137 -7.16943359 7.60400391 C-6.81469971 6.93199951 -6.45996582 6.25999512 -6.09448242 5.56762695 C-5.69874023 4.67043945 -5.30299805 3.77325195 -4.89526367 2.84887695 C-3.09448242 0.56762695 -3.09448242 0.56762695 0 0 Z " fill="#163A6D" transform="translate(101.094482421875,89.432373046875)"/>
<path d="M0 0 C0.33 0.66 0.66 1.32 1 2 C2.32 2 3.64 2 5 2 C7.75 4 7.75 4 10 6 C9.125 11.875 9.125 11.875 8 13 C5.5625 13.25 5.5625 13.25 3 13 C2.34 12.01 1.68 11.02 1 10 C1.99 9.01 2.98 8.02 4 7 C1.36 6.67 -1.28 6.34 -4 6 C-4 5.34 -4 4.68 -4 4 C-3.34 4 -2.68 4 -2 4 C-2 3.01 -2 2.02 -2 1 C-1.34 0.67 -0.68 0.34 0 0 Z " fill="#0B3C78" transform="translate(97,128)"/>
<path d="M0 0 C0.33 0 0.66 0 1 0 C1.33 11.55 1.66 23.1 2 35 C2.66 35.33 3.32 35.66 4 36 C4 37.32 4 38.64 4 40 C9.28 40.33 14.56 40.66 20 41 C20 41.33 20 41.66 20 42 C18.35473791 42.17221435 16.70874089 42.33740831 15.0625 42.5 C14.14597656 42.5928125 13.22945312 42.685625 12.28515625 42.78125 C8.19850488 43.05336947 4.09570121 43 0 43 C0 28.81 0 14.62 0 0 Z " fill="#0B4179" transform="translate(76,46)"/>
<path d="M0 0 C1.4370809 -0.05422947 2.87475462 -0.09289723 4.3125 -0.125 C5.11300781 -0.14820312 5.91351563 -0.17140625 6.73828125 -0.1953125 C9 0 9 0 12 2 C12.1875 4.625 12.1875 4.625 12 7 C11.34 7 10.68 7 10 7 C10 8.65 10 10.3 10 12 C8.68 12 7.36 12 6 12 C4.875 6.25 4.875 6.25 6 4 C4.68 4 3.36 4 2 4 C1.34 2.68 0.68 1.36 0 0 Z " fill="#6EB8D4" transform="translate(133,92)"/>
<path d="M0 0 C0.99 0 1.98 0 3 0 C3 8.25 3 16.5 3 25 C2.01 25 1.02 25 0 25 C0 16.75 0 8.5 0 0 Z " fill="#0E3C72" transform="translate(144,155)"/>
<path d="M0 0 C0.7425 0.495 0.7425 0.495 1.5 1 C1.5 2.32 1.5 3.64 1.5 5 C1.005 4.835 0.51 4.67 0 4.5 C-4.03209172 3.69358166 -8.76025568 3.13012784 -12.5 5 C-12.5 4.34 -12.5 3.68 -12.5 3 C-13.49 3.33 -14.48 3.66 -15.5 4 C-14.5 1 -14.5 1 -12.9375 -0.1875 C-8.60908859 -1.6303038 -4.24821956 -1.69928782 0 0 Z " fill="#0D3467" transform="translate(119.5,157)"/>
<path d="M0 0 C2.64 0 5.28 0 8 0 C8 0.33 8 0.66 8 1 C6.35 1 4.7 1 3 1 C3.495 1.61875 3.99 2.2375 4.5 2.875 C6 5 6 5 6 7 C9.3 7 12.6 7 16 7 C12.25 13.875 12.25 13.875 10 15 C8.70462174 13.2527456 7.41383727 11.50208483 6.125 9.75 C5.40570313 8.77546875 4.68640625 7.8009375 3.9453125 6.796875 C2.39017775 4.56097846 1.11795777 2.47127507 0 0 Z " fill="#61A4BD" transform="translate(102,41)"/>
<path d="M0 0 C3.17538332 0.34021964 4.02276865 1.02466604 6.25 3.4375 C8 6 8 6 8 8 C10.31 8 12.62 8 15 8 C15.12375 7.38125 15.2475 6.7625 15.375 6.125 C16 4 16 4 18 2 C17.25 7.75 17.25 7.75 15 10 C15 10.99 15 11.98 15 13 C12.36 13 9.72 13 7 13 C7.33 11.68 7.66 10.36 8 9 C7.01 9.33 6.02 9.66 5 10 C5.0825 9.236875 5.165 8.47375 5.25 7.6875 C5.29956031 4.86906888 5.29956031 4.86906888 3.0625 3.3125 C2.381875 2.879375 1.70125 2.44625 1 2 C0.67 1.34 0.34 0.68 0 0 Z " fill="#0F3064" transform="translate(101,129)"/>
<path d="M0 0 C1.98 0.495 1.98 0.495 4 1 C3.67 6.61 3.34 12.22 3 18 C1.68 17.67 0.36 17.34 -1 17 C-1.02684679 14.35409986 -1.04676357 11.70846904 -1.0625 9.0625 C-1.07087891 8.30775391 -1.07925781 7.55300781 -1.08789062 6.77539062 C-1.09652441 4.85005687 -1.05224333 2.92464419 -1 1 C-0.67 0.67 -0.34 0.34 0 0 Z " fill="#C81212" transform="translate(86,162)"/>
<path d="M0 0 C-0.33 0.66 -0.66 1.32 -1 2 C-2.8203125 2.1328125 -2.8203125 2.1328125 -5.125 2.125 C-9.34101439 2.48752353 -11.09321114 3.57590758 -13.875 6.75 C-14.94149376 8.14807187 -15.98627676 9.56320527 -17 11 C-17.639375 11.804375 -18.27875 12.60875 -18.9375 13.4375 C-20.52052649 17.25538741 -20.23983238 20.9228496 -20 25 C-21.89213369 22.61426621 -23.02391783 20.92824652 -24 18 C-21.72953651 13.73595882 -18.85493068 9.89029154 -16 6 C-15.49855469 5.30003906 -14.99710938 4.60007812 -14.48046875 3.87890625 C-10.37117875 -1.05934715 -5.89545558 -0.62915929 0 0 Z " fill="#113A6A" transform="translate(138,41)"/>
<path d="M0 0 C1.58179615 -0.10867302 3.16577153 -0.18589827 4.75 -0.25 C5.63171875 -0.29640625 6.5134375 -0.3428125 7.421875 -0.390625 C10 0 10 0 12.3125 1.5625 C14.62844328 4.9077514 14.39910904 7.22405587 14.25 11.25 C14.21390625 12.51328125 14.1778125 13.7765625 14.140625 15.078125 C14.07101563 16.52445313 14.07101563 16.52445313 14 18 C12.68 17.67 11.36 17.34 10 17 C10.99 17 11.98 17 13 17 C12.67 12.38 12.34 7.76 12 3 C10.68 3.33 9.36 3.66 8 4 C6.58465222 4.06456879 5.16662311 4.08611039 3.75 4.0625 C1.89375 4.0315625 1.89375 4.0315625 0 4 C0 2.68 0 1.36 0 0 Z " fill="#C01519" transform="translate(70,162)"/>
<path d="M0 0 C2.35546875 0.1953125 2.35546875 0.1953125 5 1 C6.36328125 3.1796875 6.36328125 3.1796875 7.3125 5.875 C7.63863281 6.75929687 7.96476562 7.64359375 8.30078125 8.5546875 C9 11 9 11 9 14 C6.36 14.33 3.72 14.66 1 15 C2.32 14.67 3.64 14.34 5 14 C4.4740625 12.700625 4.4740625 12.700625 3.9375 11.375 C2.931041 7.75174758 3.13936481 5.6146678 4 2 C3.01 2 2.02 2 1 2 C1 2.66 1 3.32 1 4 C0.34 4 -0.32 4 -1 4 C-0.67 2.68 -0.34 1.36 0 0 Z " fill="#C51316" transform="translate(36,156)"/>
<path d="M0 0 C1.32 0.33 2.64 0.66 4 1 C4 6.28 4 11.56 4 17 C2.68 17.33 1.36 17.66 0 18 C0 12.06 0 6.12 0 0 Z " fill="#D31115" transform="translate(64,162)"/>
<path d="M0 0 C3 1 3 1 4 3 C4.13415472 5.6723621 4.04318541 8.32250488 4 11 C1.36 10.34 -1.28 9.68 -4 9 C-3.67 7.35 -3.34 5.7 -3 4 C-2.34 4 -1.68 4 -1 4 C-0.67 2.68 -0.34 1.36 0 0 Z " fill="#0A417D" transform="translate(84,113)"/>
<path d="M0 0 C1.5 1.3125 1.5 1.3125 3 3 C3 3.99 3 4.98 3 6 C-5.58 6 -14.16 6 -23 6 C-22.67 4.35 -22.34 2.7 -22 1 C-21.67 1.99 -21.34 2.98 -21 4 C-14.07 4 -7.14 4 0 4 C0 2.68 0 1.36 0 0 Z " fill="#B92C32" transform="translate(123,82)"/>
<path d="M0 0 C-0.49831724 3.68754757 -1.10067643 5.60490662 -4 8 C-4.33 6.68 -4.66 5.36 -5 4 C-8.3 3.67 -11.6 3.34 -15 3 C-15.33 3.99 -15.66 4.98 -16 6 C-16.5625 4.0625 -16.5625 4.0625 -17 2 C-15.14596732 0.14596732 -12.12153189 0.6110999 -9.625 0.4375 C-8.46226563 0.35371094 -7.29953125 0.26992187 -6.1015625 0.18359375 C-4.07034334 0.06335785 -2.03477467 0 0 0 Z " fill="#5999B2" transform="translate(94,90)"/>
<path d="M0 0 C0.66 0 1.32 0 2 0 C2.83819158 1.62249941 3.6704116 3.24808497 4.5 4.875 C4.9640625 5.77992187 5.428125 6.68484375 5.90625 7.6171875 C7 10 7 10 7 12 C5.68 11.34 4.36 10.68 3 10 C3 9.34 3 8.68 3 8 C2.67 8.66 2.34 9.32 2 10 C0.68 9.67 -0.64 9.34 -2 9 C-1.34 9 -0.68 9 0 9 C0.33 7.68 0.66 6.36 1 5 C0.01 5 -0.98 5 -2 5 C-1.34 3.35 -0.68 1.7 0 0 Z " fill="#D21317" transform="translate(112,63)"/>
<path d="M0 0 C1.32 0.66 2.64 1.32 4 2 C3.67 3.65 3.34 5.3 3 7 C-1.41225737 8.47075246 -4.48281619 9.36884358 -9 8 C-9 6.68 -9 5.36 -9 4 C-4.05 4.99 -4.05 4.99 1 6 C0.67 4.02 0.34 2.04 0 0 Z " fill="#C40B0E" transform="translate(59,172)"/>
<path d="M0 0 C1.32 0 2.64 0 4 0 C4.6875 1.8125 4.6875 1.8125 5 4 C3.9375 5.8125 3.9375 5.8125 2 7 C-1.1875 6.6875 -1.1875 6.6875 -4 6 C-4.33 6.66 -4.66 7.32 -5 8 C-5.33 7.01 -5.66 6.02 -6 5 C-4.68 4.67 -3.36 4.34 -2 4 C-2.66 3.34 -3.32 2.68 -4 2 C-2.68 2 -1.36 2 0 2 C0 1.34 0 0.68 0 0 Z " fill="#174478" transform="translate(74,100)"/>
<path d="M0 0 C0.66 0 1.32 0 2 0 C2.45375 0.94875 2.9075 1.8975 3.375 2.875 C4.80238254 6.00313679 4.80238254 6.00313679 7 8 C4.75 8.6875 4.75 8.6875 2 9 C-0.3125 7.5625 -0.3125 7.5625 -2 6 C-1.34 4.02 -0.68 2.04 0 0 Z " fill="#0D417D" transform="translate(143,107)"/>
<path d="M0 0 C3.25537019 3.07940424 6.14619454 5.8804323 8 10 C7.80062929 13.98741425 6.16548487 16.70469694 4 20 C3.67 19.34 3.34 18.68 3 18 C3.350625 17.278125 3.70125 16.55625 4.0625 15.8125 C5.35851658 11.92445025 4.44078732 9.77349059 3 6 C2.04175747 4.63634717 1.05278825 3.29205831 0 2 C0 1.34 0 0.68 0 0 Z " fill="#123B6A" transform="translate(103,48)"/>
<path d="M0 0 C-0.33 4.29 -0.66 8.58 -1 13 C-1.33 12.01 -1.66 11.02 -2 10 C-2.66 10 -3.32 10 -4 10 C-4.6875 6.6875 -4.6875 6.6875 -5 3 C-3.42599605 0.67647035 -2.82844233 0 0 0 Z " fill="#113B73" transform="translate(107,160)"/>
<path d="M0 0 C0.66 0 1.32 0 2 0 C2 1.32 2 2.64 2 4 C2.66 4.33 3.32 4.66 4 5 C3.67 5.33 3.34 5.66 3 6 C4.32 7.32 5.64 8.64 7 10 C4 12 4 12 0 12 C0 11.34 0 10.68 0 10 C0.99 9.67 1.98 9.34 3 9 C2.505 8.54625 2.01 8.0925 1.5 7.625 C0 6 0 6 0 4 C-0.66 3.34 -1.32 2.68 -2 2 C-1.34 1.34 -0.68 0.68 0 0 Z " fill="#0C2E65" transform="translate(128,124)"/>
<path d="M0 0 C0.66 0 1.32 0 2 0 C2 0.66 2 1.32 2 2 C5.3 2 8.6 2 12 2 C11.67 3.32 11.34 4.64 11 6 C10.38511719 5.9278125 9.77023438 5.855625 9.13671875 5.78125 C8.32847656 5.6884375 7.52023438 5.595625 6.6875 5.5 C5.48673828 5.36078125 5.48673828 5.36078125 4.26171875 5.21875 C1.88103445 4.95186537 1.88103445 4.95186537 -1 5 C-0.67 3.35 -0.34 1.7 0 0 Z " fill="#DD0609" transform="translate(33,168)"/>
<path d="M0 0 C0.66 0.99 1.32 1.98 2 3 C2.66 2.67 3.32 2.34 4 2 C3.01 4.97 2.02 7.94 1 11 C-0.32 11 -1.64 11 -3 11 C-2.44894091 7.0507432 -1.61064629 3.65079826 0 0 Z " fill="#C81218" transform="translate(31,169)"/>
<path d="M0 0 C0.33 0.66 0.66 1.32 1 2 C2.32 2 3.64 2 5 2 C5.33 3.32 5.66 4.64 6 6 C5.34 6 4.68 6 4 6 C4.33 7.32 4.66 8.64 5 10 C6.32 10.33 7.64 10.66 9 11 C8.01 11.99 7.02 12.98 6 14 C4.9923048 12.2335343 3.99408286 10.46166177 3 8.6875 C2.443125 7.70136719 1.88625 6.71523437 1.3125 5.69921875 C0 3 0 3 0 0 Z " fill="#5E9EB6" transform="translate(134,94)"/>
<path d="M0 0 C0.66 0 1.32 0 2 0 C3.32229189 2.64458379 3.09677194 4.67761301 3.0625 7.625 C3.05347656 8.62789062 3.04445313 9.63078125 3.03515625 10.6640625 C3.02355469 11.43492187 3.01195313 12.20578125 3 13 C1 11 1 11 0.875 8.375 C0.91625 7.59125 0.9575 6.8075 1 6 C-1.31 6 -3.62 6 -6 6 C-5.67 5.34 -5.34 4.68 -5 4 C-3.35 4 -1.7 4 0 4 C0 2.68 0 1.36 0 0 Z " fill="#D7070B" transform="translate(80,165)"/>
<path d="M0 0 C0.33 0 0.66 0 1 0 C1 1.98 1 3.96 1 6 C-2.96 6 -6.92 6 -11 6 C-11 5.01 -11 4.02 -11 3 C-9.741875 2.95875 -8.48375 2.9175 -7.1875 2.875 C-6.47980469 2.85179687 -5.77210938 2.82859375 -5.04296875 2.8046875 C-3 3 -3 3 0 5 C0 3.35 0 1.7 0 0 Z " fill="#123264" transform="translate(196,166)"/>
<path d="M0 0 C1.44010481 0.25662245 2.8770687 0.53090821 4.3125 0.8125 C5.11300781 0.96332031 5.91351563 1.11414063 6.73828125 1.26953125 C9 2 9 2 12 5 C8.04 5 4.08 5 0 5 C0 3.33333333 0 1.66666667 0 0 Z " fill="#0D3162" transform="translate(107,175)"/>
<path d="M0 0 C0.99 0.33 1.98 0.66 3 1 C3 1.99 3 2.98 3 4 C4.43750191 5.68798827 4.43750191 5.68798827 6 7 C4.35 7.33 2.7 7.66 1 8 C1 7.34 1 6.68 1 6 C0.34 6 -0.32 6 -1 6 C-1.33 5.01 -1.66 4.02 -2 3 C-1.34 2.01 -0.68 1.02 0 0 Z " fill="#073F7F" transform="translate(126,127)"/>
<path d="M0 0 C0.33 0.99 0.66 1.98 1 3 C1.66 3 2.32 3 3 3 C3 3.66 3 4.32 3 5 C3.99 5 4.98 5 6 5 C6 5.66 6 6.32 6 7 C3.125 7.1875 3.125 7.1875 0 7 C-2 4 -2 4 -2 1 C-1.34 0.67 -0.68 0.34 0 0 Z " fill="#C61013" transform="translate(51,165)"/>
<path d="M0 0 C3.40458262 3.89095157 6.24177968 8.11365765 8 13 C7.67 13.66 7.34 14.32 7 15 C0 5.48854962 0 5.48854962 0 0 Z " fill="#0E3E70" transform="translate(128,92)"/>
<path d="M0 0 C2.31 0.33 4.62 0.66 7 1 C7 1.66 7 2.32 7 3 C0.71428571 5.42857143 0.71428571 5.42857143 -3 4 C-2.01 2.68 -1.02 1.36 0 0 Z " fill="#E40F16" transform="translate(105,81)"/>
<path d="M0 0 C4.29 0 8.58 0 13 0 C10.525 3.465 10.525 3.465 8 7 C7.67 6.34 7.34 5.68 7 5 C7.33 4.01 7.66 3.02 8 2 C5.36 1.67 2.72 1.34 0 1 C0 0.67 0 0.34 0 0 Z " fill="#639AB1" transform="translate(111,41)"/>
<path d="M0 0 C2.31 0 4.62 0 7 0 C6.67 1.32 6.34 2.64 6 4 C4.125 4.625 4.125 4.625 2 5 C1.34 4.34 0.68 3.68 0 3 C0 2.01 0 1.02 0 0 Z " fill="#70B9D6" transform="translate(79,93)"/>
<path d="M0 0 C2.475 0.495 2.475 0.495 5 1 C5 1.66 5 2.32 5 3 C5.99 2.67 6.98 2.34 8 2 C7.67 2.99 7.34 3.98 7 5 C5.0625 5.75 5.0625 5.75 3 6 C2.34 5.67 1.68 5.34 1 5 C0.375 2.4375 0.375 2.4375 0 0 Z " fill="#074383" transform="translate(138,117)"/>
<path d="M0 0 C0.33 0.66 0.66 1.32 1 2 C1.99 2.33 2.98 2.66 4 3 C0.93882432 5.62386487 0.26826873 6 -4 6 C-4 5.34 -4 4.68 -4 4 C-3.34 4 -2.68 4 -2 4 C-2 3.01 -2 2.02 -2 1 C-1.34 0.67 -0.68 0.34 0 0 Z " fill="#084385" transform="translate(97,128)"/>
<path d="M0 0 C0.804375 0.4640625 0.804375 0.4640625 1.625 0.9375 C4.3984957 2.17827439 7.00042837 2.5909675 10 3 C9.34 3.66 8.68 4.32 8 5 C5.27130593 4.96712417 2.7033382 4.43602229 0 4 C0 2.68 0 1.36 0 0 Z " fill="#15396B" transform="translate(166,182)"/>
<path d="M0 0 C1.32 0.33 2.64 0.66 4 1 C4 1.66 4 2.32 4 3 C3.01 3 2.02 3 1 3 C1.33 6.96 1.66 10.92 2 15 C1.34 15 0.68 15 0 15 C0 10.05 0 5.1 0 0 Z " fill="#123C6E" transform="translate(138,155)"/>
<path d="M0 0 C2.64 0 5.28 0 8 0 C8 0.33 8 0.66 8 1 C6.35 1 4.7 1 3 1 C3.495 1.61875 3.99 2.2375 4.5 2.875 C6 5 6 5 6 7 C6.66 7.33 7.32 7.66 8 8 C7.01 8 6.02 8 5 8 C0 2.65116279 0 2.65116279 0 0 Z " fill="#5C95A9" transform="translate(102,41)"/>
<path d="M0 0 C2 1.1875 2 1.1875 4 3 C4.25 5.6875 4.25 5.6875 4 8 C2.68 8 1.36 8 0 8 C0 5.36 0 2.72 0 0 Z " fill="#0F3B72" transform="translate(138,172)"/>
<path d="M0 0 C0.66 0.66 1.32 1.32 2 2 C1.67 2.66 1.34 3.32 1 4 C2.65 4 4.3 4 6 4 C6 4.66 6 5.32 6 6 C3.69 5.67 1.38 5.34 -1 5 C-1.33 3.68 -1.66 2.36 -2 1 C-1.34 0.67 -0.68 0.34 0 0 Z " fill="#123C70" transform="translate(79,118)"/>
<path d="M0 0 C0.66 0 1.32 0 2 0 C2.66 1.98 3.32 3.96 4 6 C1.03 5.505 1.03 5.505 -2 5 C-1.34 3.35 -0.68 1.7 0 0 Z " fill="#AA1C22" transform="translate(112,63)"/>
<path d="M0 0 C1.65 0 3.3 0 5 0 C5 0.66 5 1.32 5 2 C5.99 2.33 6.98 2.66 8 3 C5.36 3.33 2.72 3.66 0 4 C0 2.68 0 1.36 0 0 Z " fill="#BF1F23" transform="translate(70,162)"/>
<path d="M0 0 C1.9375 0.75 1.9375 0.75 4 2 C4.75 4.125 4.75 4.125 5 6 C3.68 6 2.36 6 1 6 C0.34 4.35 -0.32 2.7 -1 1 C-0.67 0.67 -0.34 0.34 0 0 Z " fill="#0C3566" transform="translate(67,96)"/>
<path d="M0 0 C0.66 0 1.32 0 2 0 C2.625 3.375 2.625 3.375 3 7 C2.34 7.66 1.68 8.32 1 9 C-1.125 2.25 -1.125 2.25 0 0 Z " fill="#183C67" transform="translate(152,89)"/>
<path d="M0 0 C1.65 0 3.3 0 5 0 C4.979375 0.928125 4.95875 1.85625 4.9375 2.8125 C4.84230396 6.02286011 4.84230396 6.02286011 6 9 C4.35 8.67 2.7 8.34 1 8 C1 7.34 1 6.68 1 6 C1.66 6 2.32 6 3 6 C3 4.35 3 2.7 3 1 C2.01 0.67 1.02 0.34 0 0 Z " fill="#D41418" transform="translate(77,170)"/>
<path d="M0 0 C1.32 0.66 2.64 1.32 4 2 C3.67 3.65 3.34 5.3 3 7 C1.68 7.33 0.36 7.66 -1 8 C-1 7.34 -1 6.68 -1 6 C-0.34 6 0.32 6 1 6 C0.67 4.02 0.34 2.04 0 0 Z " fill="#D20F11" transform="translate(59,172)"/>
<path d="M0 0 C0 1.32 0 2.64 0 4 C-1.32 3.67 -2.64 3.34 -4 3 C-4 2.34 -4 1.68 -4 1 C-5.98 1 -7.96 1 -10 1 C-10 0.67 -10 0.34 -10 0 C-3.375 -1.125 -3.375 -1.125 0 0 Z " fill="#BF1716" transform="translate(63,163)"/>
<path d="M0 0 C0.33 0.66 0.66 1.32 1 2 C2.32 2 3.64 2 5 2 C5.33 2.99 5.66 3.98 6 5 C2.25 6.125 2.25 6.125 0 5 C0 3.35 0 1.7 0 0 Z " fill="#074186" transform="translate(133,123)"/>
<path d="M0 0 C3.51341252 0.53233523 4.52654682 1.52654682 7 4 C5.3125 4.6875 5.3125 4.6875 3 5 C0.25 3.5625 0.25 3.5625 -2 2 C-1.34 1.34 -0.68 0.68 0 0 Z " fill="#093A72" transform="translate(109,125)"/>
<path d="M0 0 C1 3 1 3 -0.25 6.5625 C-2 10 -2 10 -5 12 C-3.68938409 7.76570244 -2.05643741 3.92592596 0 0 Z " fill="#B7191C" transform="translate(109,68)"/>
<path d="M0 0 C1.9955516 3.99110319 2.19546065 5.69986566 2 10 C1.01 9.67 0.02 9.34 -1 9 C-0.67 6.03 -0.34 3.06 0 0 Z " fill="#0A3A7B" transform="translate(166,167)"/>
<path d="M0 0 C0.99 0.33 1.98 0.66 3 1 C2.34 1 1.68 1 1 1 C1 1.66 1 2.32 1 3 C2.98 3 4.96 3 7 3 C6.34 3.66 5.68 4.32 5 5 C1.875 4.625 1.875 4.625 -1 4 C-1 1 -1 1 0 0 Z " fill="#133261" transform="translate(92,131)"/>
<path d="M0 0 C1.5 1.3125 1.5 1.3125 3 3 C3 3.99 3 4.98 3 6 C0.69 6 -1.62 6 -4 6 C-3.67 5.34 -3.34 4.68 -3 4 C-2.01 4 -1.02 4 0 4 C0 2.68 0 1.36 0 0 Z " fill="#902229" transform="translate(123,82)"/>
<path d="M0 0 C0.66 0.33 1.32 0.66 2 1 C0.02579865 3.52259061 -0.96745642 3.9929808 -4.1875 4.6875 C-5.5796875 4.8421875 -5.5796875 4.8421875 -7 5 C-6.67 4.34 -6.34 3.68 -6 3 C-6.66 2.34 -7.32 1.68 -8 1 C-6.68 1 -5.36 1 -4 1 C-4 1.66 -4 2.32 -4 3 C-2.68 2.01 -1.36 1.02 0 0 Z " fill="#102F5E" transform="translate(134,176)"/>
<path d="M0 0 C0.66 1.32 1.32 2.64 2 4 C2.66 4 3.32 4 4 4 C3.67 4.66 3.34 5.32 3 6 C1.68 6 0.36 6 -1 6 C-1 4.68 -1 3.36 -1 2 C-1.99 1.67 -2.98 1.34 -4 1 C-2 0 -2 0 0 0 Z " fill="#0F305D" transform="translate(123,129)"/>
<path d="M0 0 C0.268125 0.639375 0.53625 1.27875 0.8125 1.9375 C1.88667752 4.33131686 1.88667752 4.33131686 5 5 C3.35 5.33 1.7 5.66 0 6 C-0.66 5.01 -1.32 4.02 -2 3 C-1.34 3 -0.68 3 0 3 C0 2.01 0 1.02 0 0 Z " fill="#0E326E" transform="translate(124,174)"/>
<path d="M0 0 C0.66 0.33 1.32 0.66 2 1 C1.67 1.99 1.34 2.98 1 4 C-1.3431213 3.74438677 -3.67843403 3.40729228 -6 3 C-6.33 2.34 -6.66 1.68 -7 1 C-4.69 1.33 -2.38 1.66 0 2 C0 1.34 0 0.68 0 0 Z " fill="#0D2F61" transform="translate(124,137)"/>
<path d="M0 0 C0.268125 0.639375 0.53625 1.27875 0.8125 1.9375 C1.88667752 4.33131686 1.88667752 4.33131686 5 5 C3.35 5.33 1.7 5.66 0 6 C-0.38218767 4.34385343 -0.71395102 2.67542976 -1 1 C-0.67 0.67 -0.34 0.34 0 0 Z " fill="#0A4586" transform="translate(149,102)"/>
<path d="M0 0 C0.66 0 1.32 0 2 0 C2 1.65 2 3.3 2 5 C0.68 5.33 -0.64 5.66 -2 6 C-1.125 1.125 -1.125 1.125 0 0 Z " fill="#153663" transform="translate(71,89)"/>
<path d="M0 0 C1.98 0 3.96 0 6 0 C5.67 0.99 5.34 1.98 5 3 C3.35 3.33 1.7 3.66 0 4 C0 2.68 0 1.36 0 0 Z " fill="#133C72" transform="translate(125,162)"/>
<path d="M0 0 C0.33 1.32 0.66 2.64 1 4 C0.01 4.66 -0.98 5.32 -2 6 C-2 5.34 -2 4.68 -2 4 C-2.99 4.33 -3.98 4.66 -5 5 C-4 2 -4 2 -1.9375 0.8125 C-1.298125 0.544375 -0.65875 0.27625 0 0 Z " fill="#102F55" transform="translate(109,156)"/>
<path d="M0 0 C1.98 0.495 1.98 0.495 4 1 C4 1.99 4 2.98 4 4 C2.35 3.67 0.7 3.34 -1 3 C-0.67 2.01 -0.34 1.02 0 0 Z " fill="#B41D23" transform="translate(64,156)"/>
<path d="M0 0 C1.875 0.1875 1.875 0.1875 4 1 C5.25 3.5625 5.25 3.5625 6 6 C4.125 5.8125 4.125 5.8125 2 5 C0.75 2.4375 0.75 2.4375 0 0 Z " fill="#0A2F67" transform="translate(94,124)"/>
<path d="M0 0 C0.99 0.33 1.98 0.66 3 1 C3.99 0.67 4.98 0.34 6 0 C5.34 1.65 4.68 3.3 4 5 C3.34 5 2.68 5 2 5 C1.34 3.35 0.68 1.7 0 0 Z " fill="#5493AF" transform="translate(82,102)"/>
<path d="M0 0 C1.98 0.99 1.98 0.99 4 2 C4 2.66 4 3.32 4 4 C4.66 4 5.32 4 6 4 C6 4.66 6 5.32 6 6 C4.68 6 3.36 6 2 6 C1.34 4.02 0.68 2.04 0 0 Z " fill="#68ACC4" transform="translate(79,96)"/>
</svg>
